Coordinates
version=1
nRows=11
nColumns=40
inDegrees=yes

Units are S.I. units (second, meters, Newtons, ...)
Angles are in degrees.

endheader
time	pelvis_tilt	pelvis_list	pelvis_rotation	pelvis_tx	pelvis_ty	pelvis_tz	hip_flexion_r	hip_adduction_r	hip_rotation_r	knee_angle_r	knee_angle_r_beta	ankle_angle_r	subtalar_angle_r	mtp_angle_r	hip_flexion_l	hip_adduction_l	hip_rotation_l	knee_angle_l	knee_angle_l_beta	ankle_angle_l	subtalar_angle_l	mtp_angle_l	lumbar_extension	lumbar_bending	lumbar_rotation	arm_flex_r	arm_add_r	arm_rot_r	elbow_flex_r	pro_sup_r	wrist_flex_r	wrist_dev_r	arm_flex_l	arm_add_l	arm_rot_l	elbow_flex_l	pro_sup_l	wrist_flex_l	wrist_dev_l
      0.00000000	     -6.15377488	      0.94439529	      1.49001371	     -1.28926094	      0.92817988	     -1.07510949	     33.42806472	     -8.50466083	    -19.16688127	    -14.44749540	     -0.25215636	     -2.92058399	      5.69981314	      3.07105872	     -5.00428706	     -0.57702786	     16.24242444	     -9.51583754	     -0.16608270	      8.24431281	     -0.16501157	    -14.46604576	     -4.91094043	     -1.52974167	     -4.43456467	      0.63657553	     -9.73292915	    -21.67252097	     19.57222903	     89.95437384	      0.00000000	      0.00000000	     12.03348066	     21.61733963	     12.11771005	     31.35297929	     89.95437384	      0.00000000	      0.00000000
      0.01000000	     -6.25462552	      1.08025959	      1.42456212	     -1.28340839	      0.92674006	     -1.07451952	     33.65608829	     -8.54902037	    -19.51983941	    -14.33142339	     -0.25013052	     -2.82641499	      5.45008507	      3.05486832	     -5.26020890	     -0.67570649	     16.29245252	     -9.61745265	     -0.16785621	      8.48909279	     -0.20739039	    -14.38402773	     -4.87688574	     -1.60624674	     -4.46876926	      0.35909273	     -9.80319030	    -21.74135193	     19.58307157	     89.95437384	      0.00000000	      0.00000000	     11.81653510	     20.97638784	     11.87805479	     31.47989018	     89.95437384	      0.00000000	      0.00000000
      0.02000000	     -6.39323260	      1.17876545	      1.50938091	     -1.27705676	      0.92527858	     -1.07380795	     33.83188224	     -8.62191923	    -19.82088848	    -14.33723756	     -0.25023200	     -2.76565584	      5.15689248	      3.03982530	     -5.50409297	     -0.71174368	     16.48946870	     -9.66623339	     -0.16870760	      8.65812497	     -0.20482399	    -14.28734917	     -4.80163211	     -1.60308714	     -4.73894170	      0.11149803	     -9.85376184	    -21.85771055	     19.56037598	     89.95437384	      0.00000000	      0.00000000	     11.37058207	     20.40265647	     11.72637797	     31.55429286	     89.95437384	      0.00000000	      0.00000000
      0.03000000	     -6.06632906	      0.89970325	      1.58244915	     -1.27014038	      0.92450239	     -1.07297535	     33.44981391	     -8.36831134	    -20.76033508	    -14.60348976	     -0.25487898	     -2.52986691	      4.45255087	      3.04820396	     -6.30154434	     -0.29224126	     16.33161764	     -9.75238708	     -0.17021126	      8.96783926	     -0.38189230	    -14.30580506	     -5.21238078	     -1.18523132	     -4.85046367	     -0.06942323	     -9.88182370	    -22.68696562	     19.51256814	     89.95437384	      0.00000000	      0.00000000	     10.91170293	     19.67908723	     11.72437759	     31.82114568	     89.95437384	      0.00000000	      0.00000000
      0.04000000	     -5.96628205	      0.83008125	      1.74115074	     -1.26328416	      0.92353255	     -1.07191416	     33.24175205	     -8.28312215	    -21.14975774	    -14.81633879	     -0.25859389	     -2.18693618	      3.81067835	      3.07161056	     -6.83458071	     -0.01905367	     16.74879467	     -9.84474858	     -0.17182328	      8.83744130	     -0.97198863	    -14.30470755	     -5.41023554	     -1.00045258	     -5.08847299	     -0.26036389	     -9.84752243	    -23.42210954	     19.46226135	     89.95437384	      0.00000000	      0.00000000	     10.54198820	     18.99590367	     11.60448209	     31.90103237	     89.95437384	      0.00000000	      0.00000000
      0.05000000	     -6.12185687	      0.97778369	      1.81687260	     -1.25654202	      0.92208821	     -1.07099541	     33.34534662	     -8.40221236	    -20.96991417	    -15.12454844	     -0.26397317	     -2.18137199	      3.58757985	      3.02754089	     -6.93125535	     -0.04411813	     16.73419077	    -10.23374846	     -0.17861261	      8.78602563	     -0.94275643	    -14.08390952	     -5.27274998	     -1.05630152	     -5.24561828	     -0.63714800	     -9.92451949	    -23.41585952	     19.58268270	     89.95437384	      0.00000000	      0.00000000	     10.05986248	     18.35378439	     11.42690986	     31.97045975	     89.95437384	      0.00000000	      0.00000000
      0.06000000	     -6.05546123	      0.79503283	      1.82302970	     -1.24891499	      0.92100406	     -1.06948873	     33.22273503	     -8.19500258	    -21.50437653	    -15.82497813	     -0.27619797	     -1.85147093	      2.74150530	      3.01360735	     -7.53624079	      0.32405516	     17.09809805	    -10.21434813	     -0.17827401	      8.97481906	     -1.28935897	    -14.11488169	     -5.32768364	     -0.76187037	     -5.25132473	     -0.91220698	     -9.96174436	    -24.00889281	     19.36999885	     89.95437384	      0.00000000	      0.00000000	      9.46857965	     17.74201504	     11.18305592	     32.02109256	     89.95437384	      0.00000000	      0.00000000
      0.07000000	     -6.22065793	      0.94306572	      1.93842805	     -1.24182892	      0.91966970	     -1.06815824	     33.23752928	     -8.28977557	    -21.15504523	    -16.25201484	     -0.28365117	     -1.91818870	      2.57934067	      2.96248133	     -7.56307644	      0.36360299	     16.95289745	    -10.73403176	     -0.18734420	      8.81441180	     -1.24673391	    -13.83782194	     -5.18982031	     -0.84892716	     -5.39688116	     -1.32927347	     -9.97474417	    -23.97588502	     19.56539467	     89.95437384	      0.00000000	      0.00000000	      8.93114481	     17.09142431	     11.00905844	     32.11943386	     89.95437384	      0.00000000	      0.00000000
      0.08000000	     -5.93664122	      0.57915639	      2.18362434	     -1.23354847	      0.91918594	     -1.06680852	     32.57940130	     -7.97339275	    -21.63925863	    -16.84274589	     -0.29396137	     -1.63492619	      1.50724164	      3.02543058	     -8.32151597	      1.07716285	     17.35641312	    -10.92452739	     -0.19066897	      8.77565319	     -2.14967159	    -14.04409481	     -5.46056064	     -0.29235805	     -5.66496721	     -1.37535746	     -9.99601303	    -25.13704723	     19.11957630	     89.95437384	      0.00000000	      0.00000000	      8.31777773	     16.38756685	     10.96926841	     32.04918093	     89.95437384	      0.00000000	      0.00000000
      0.09000000	     -6.11260461	      0.73067494	      2.23580466	     -1.22574801	      0.91793710	     -1.06512775	     32.50933748	     -8.02861392	    -21.21887008	    -17.33665508	     -0.30258171	     -1.80912965	      1.42242196	      2.98184988	     -8.35203301	      1.14293969	     17.07436704	    -11.55287037	     -0.20163563	      8.53255205	     -2.06766032	    -13.74002297	     -5.25385992	     -0.38094470	     -5.72889202	     -1.88351626	    -10.00813462	    -25.09019453	     19.32406318	     89.95437384	      0.00000000	      0.00000000	      7.62997587	     15.80632608	     10.81184037	     32.09798485	     89.95437384	      0.00000000	      0.00000000
      0.10000000	     -5.81969338	     -0.17134360	      2.43446914	     -1.21729292	      0.91774423	     -1.06283601	     31.76979042	     -7.05595794	    -22.29713931	    -17.36764960	     -0.30312267	     -3.95024062	     -0.56245393	      3.47159790	     -8.81168058	      2.74084716	     18.38829911	    -12.34713515	     -0.21549816	      8.25266950	     -4.55369057	    -14.89910422	     -5.48916048	      0.72510403	     -5.77022308	     -2.04769551	    -10.04303124	    -26.20655194	     19.06861957	     89.95437384	      0.00000000	      0.00000000	      7.12220059	     15.07008132	     10.60288952	     31.79594829	     89.95437384	      0.00000000	      0.00000000
